PathFileType	4	(X/Y/Z)	49_1_16_p1_0-121_filt_butterworth.trc
DataRate	CameraRate	NumFrames	NumMarkers	Units	OrigDataRate	OrigDataStartFrame	OrigNumFrames
45.0	45.0	5	27	m	45.0	90	121
Frame#	Time	RHip			RKnee			RAnkle			RBigToe			RSmallToe			RHeel			LHip			LKnee			LAnkle			LBigToe			LSmallToe			LHeel			Neck			Head			Nose			RShoulder			RElbow			RWrist			RThumb			RIndex			RPinky			LShoulder			LElbow			LWrist			LThumb			LIndex			LPinky			
		X1	Y1	Z1	X2	Y2	Z2	X3	Y3	Z3	X4	Y4	Z4	X5	Y5	Z5	X6	Y6	Z6	X7	Y7	Z7	X8	Y8	Z8	X9	Y9	Z9	X10	Y10	Z10	X11	Y11	Z11	X12	Y12	Z12	X13	Y13	Z13	X14	Y14	Z14	X15	Y15	Z15	X16	Y16	Z16	X17	Y17	Z17	X18	Y18	Z18	X19	Y19	Z19	X20	Y20	Z20	X21	Y21	Z21	X22	Y22	Z22	X23	Y23	Z23	X24	Y24	Z24	X25	Y25	Z25	X26	Y26	Z26	X27	Y27	Z27	
90	2.0	0.38094031343677504	0.5904221790933573	0.7266121028652451	0.3469078433146808	0.79501919001746	1.1678534527640296	0.34284808430338126	1.0431111079679845	1.59002707891556	0.30830007540872906	0.849657448645666	1.675257137718007	0.376701992638641	0.8480586955241944	1.6677606152899571	0.32456624700093556	1.153024892167124	1.6301898495348237	0.1634014708424568	0.6152350788392746	0.7198293903282963	0.17092803283870867	0.8268362641917764	1.1762398541900245	0.18097788667970446	1.0287111326824392	1.5733736500736595	0.1549045857940856	0.8354349969522872	1.6545820258740227	0.10825310649129109	0.8971233026095906	1.6483391373108938	0.19415684146792545	1.1372187420162663	1.6358440583736074	0.27302626320848944	0.4457998862875083	0.27390005867578116	0.26569806015829595	0.30032483208593297	0.047878813668881574	0.2725616932873193	0.277970569781109	0.22647383474567093	0.4334163854268712	0.4888381935948405	0.2992472927829094	0.5241216963152047	0.5695096433536576	0.5336107238680067	0.4620974428204775	0.47824317902575253	0.7464578330762938	0.39497591221179207	0.4093545079446056	0.8558569198614843	0.4020676858035443	0.41299392189024126	0.8674974107906758	0.45584367179646335	0.4914068480387986	0.8668777540737348	0.09946189782422489	0.4496973843614066	0.3024360269999315	0.013201063134254171	0.5957261060792819	0.508895492648944	0.010935703925914243	0.5135725874606445	0.7528293420635517	0.033196391684587837	0.4975956998250357	0.8634857011808299	0.010199023161118315	0.4518110596158127	0.8849589138597749	-0.009856640501088018	0.5270614188223312	0.8755442655419935
91	2.022222222222222	0.38097711624761144	0.5906813271888828	0.7266947886675522	0.34547049299521365	0.793672315075141	1.1687985396494398	0.34360292322648595	1.0433187576435858	1.5918252098813623	0.30834994533924837	0.8493534870857183	1.67326803301323	0.3751277312348778	0.8495568214018985	1.6668285059510484	0.32691238903694897	1.1609225804588714	1.6314501611670922	0.16359583443208772	0.6163555059973875	0.7201155790900176	0.17234755831162907	0.8287241583219196	1.1795613662292597	0.18115182599880364	1.0288781472781012	1.5765183681604866	0.15506783916288433	0.8342269484803608	1.6531755407867734	0.10823785614191543	0.8971372324546127	1.6483887418732346	0.19414996441508373	1.1415306274678132	1.641529188092001	0.2730266013458976	0.4458787017605091	0.27384763580141147	0.26591662268955624	0.30909101625730406	0.04626171502196019	0.27160898573142656	0.2883551653157541	0.22292699000863278	0.4349523884286506	0.4930337662956592	0.2989373212898675	0.5255304619457333	0.5732882837132538	0.5332568879841821	0.4622946111795717	0.4781023943041144	0.7466704749839409	0.3925341682293181	0.40990476018289107	0.8562401518892523	0.40081224947438865	0.41250382199187424	0.8674430903304303	0.45325778698929264	0.48922913452850814	0.8694592761740587	0.09923088367305002	0.45561569312452355	0.30130482537715664	0.012909328052885917	0.5992133387522977	0.5054079886497189	0.014862365666863053	0.5074911677877536	0.7479653477084622	0.036170389260288	0.491983674729623	0.8598497988843561	0.01307277861725593	0.4552719405773026	0.883778437574907	-0.006794544645044628	0.5239711238008019	0.873561504095762
92	2.0444444444444443	0.3810366361954376	0.590301881558636	0.7268665742862446	0.3452546810140333	0.7938168985002321	1.1692754446766078	0.3435008280276392	1.0444467823071228	1.5939056974518715	0.3083796639498566	0.8497057309458339	1.672690324796549	0.3729527785419823	0.8475306157105906	1.6667353475052717	0.328567519999198	1.1662294735917091	1.6325585836967156	0.16396235441669577	0.6174145238375197	0.7205693995563867	0.17254121578619255	0.8297066426016473	1.181161798199474	0.18093893099283156	1.0287392241285023	1.5788660835359531	0.15532760883085917	0.833118268337687	1.651500191109056	0.10823537244344639	0.8968846052105071	1.6480860642138309	0.1942104767344393	1.1443418721522054	1.6433370226653947	0.27300982296213033	0.4460259658363842	0.2737724831009051	0.2659656241816414	0.3127946074824962	0.04396851928398372	0.26887699537993315	0.29680446098898494	0.21981043147854978	0.4362351498080391	0.49663487371370907	0.29863723581485935	0.5277139700249501	0.5791445025100441	0.5323364078762803	0.46109824781619574	0.4779996848523508	0.7461604964881834	0.3896823672224059	0.41074024427236827	0.8552267946696497	0.3991217849425057	0.4084421711749526	0.8664961299256299	0.44634550628477876	0.47754497197378215	0.8714546520786424	0.09900863945024482	0.4626462711183773	0.2995482986250734	0.012311533720732196	0.6086011830971928	0.5015603553093984	0.0201802416408525	0.4996034964509318	0.7426327177892638	0.04148643818577397	0.4814886701183445	0.8528300090209285	0.01901289457454372	0.4639403717875098	0.8825185126696996	-0.0006886881662811479	0.5172115342337209	0.8723215449942763
93	2.066666666666667	0.3811893807653701	0.5898514662699408	0.7270044258181508	0.34598604486281326	0.7952546445984772	1.169535153573633	0.34220136237323473	1.044972412954633	1.5945501777562436	0.30852641883805576	0.8501731300787575	1.6723198662427636	0.37168994086736834	0.8435996347358117	1.666862728980111	0.3290967195414603	1.1674610087598987	1.6341844914890178	0.16423997459505565	0.618909502728195	0.7207561665266763	0.17143186603350602	0.8292104441652379	1.180124835043852	0.18078174482011306	1.0283686959065164	1.5790483965063595	0.15544318714486624	0.8323221299358667	1.6500442636384134	0.1083721375694195	0.8964938646554236	1.6467709886621127	0.19478591909896148	1.1458664980076934	1.64196447529697	0.27298888798375776	0.446193947631594	0.27369394927789537	0.2658794793278968	0.31207906133015406	0.04159381724948349	0.2653028953440023	0.3016894178744196	0.21835211094446538	0.4377293013331649	0.5008226895792447	0.29772934189942507	0.5290118577263683	0.5832777184501876	0.5316651486984796	0.4574410576436943	0.4778644215028073	0.7439803049314551	0.3873209683237224	0.41012190570546614	0.8506346781158223	0.3960260851426468	0.40242389106030646	0.8650185649171918	0.43424437150870226	0.45674003334465163	0.8714562384619582	0.09884768148400613	0.4681212555185902	0.2972761114929141	0.011843403814323498	0.618395067496652	0.4985116075390606	0.025040426437915937	0.49510900895168203	0.739076232697403	0.04774607389234431	0.47068413279593313	0.8430316408142515	0.02797111515365332	0.47180013076112604	0.8800936564844877	0.007528834857916646	0.5152836442956855	0.8717332931251695
94	2.088888888888889	0.38139483325514095	0.5897310799565141	0.7270730282215342	0.34686571875377004	0.799511555698542	1.169522326863497	0.34031129467349486	1.044945496140672	1.594053113542805	0.30839544199494845	0.8490024127520378	1.6717508319424794	0.3716252623542374	0.8431419252220365	1.666681123120416	0.32873824323066037	1.1658223168055113	1.6351701350268675	0.16434213105324463	0.6230223377375205	0.7200830901366643	0.1690690286076874	0.8274556528749023	1.1779597364514511	0.18085285994611597	1.028123944759967	1.5775025824417699	0.1554295698512739	0.8317997391700939	1.6488969544734682	0.10863524902393354	0.8963590021363487	1.6449024142219975	0.19552400896945	1.1465925174430593	1.6409767584209214	0.2729802443300175	0.4463662125358714	0.2736006609361047	0.26578581712241534	0.31050437304782064	0.040015859278819704	0.2623179930492832	0.30368034640564284	0.21874468057674257	0.439624619888963	0.5060208326156416	0.2963478725316627	0.5291283073390198	0.582956931172849	0.531538228585921	0.4528705446340043	0.47734207747072993	0.7409745786742139	0.3840863771540707	0.4052390478204416	0.843118169324046	0.39190844581855355	0.3995682773155729	0.8640611713354269	0.41861584239837096	0.4369990345661108	0.8706822297064397	0.09906325709472763	0.4715159306481905	0.2950276648808902	0.012543540401601001	0.620918746946836	0.4976786562661415	0.028772750279311535	0.49469407222770145	0.7367449923483742	0.0563267531154721	0.46476557722506245	0.8335406400056649	0.0405068948957356	0.4677308394496299	0.8763751922663156	0.01675666946477953	0.5182304910417296	0.8715967805125748
